<?xml version="1.0" standalone="no"?>
<!DOCTYPE svg PUBLIC "-//W3C//DTD SVG 20010904//EN"
 "http://www.w3.org/TR/2001/REC-SVG-20010904/DTD/svg10.dtd">
<svg version="1.0" xmlns="http://www.w3.org/2000/svg"
 width="420.000000pt" height="420.000000pt" viewBox="0 0 420.000000 420.000000"
 preserveAspectRatio="xMidYMid meet">
<metadata>
Created by potrace 1.14, written by Peter Selinger 2001-2017
</metadata>
<g transform="translate(0.000000,420.000000) scale(0.100000,-0.100000)"
fill="#000000" stroke="none">
<path d="M1870 3525 c-125 -21 -311 -73 -380 -107 -69 -34 -162 -118 -182
-165 -6 -15 -16 -46 -22 -68 -11 -39 -11 -39 -64 -41 -42 -1 -60 -7 -90 -31
-39 -32 -92 -102 -97 -131 -2 -9 -4 -18 -5 -19 -2 -2 -3 -6 -5 -10 -1 -5 -7
-20 -13 -35 -37 -88 -27 -334 17 -451 12 -31 27 -122 35 -217 13 -140 15 -156
30 -199 20 -55 20 -55 -6 -37 -32 22 -63 20 -92 -7 -68 -63 -64 -191 14 -422
16 -49 30 -91 30 -91 0 -1 -12 -1 -27 -2 -92 0 -103 -3 -127 -27 -19 -19 -24
-34 -22 -61 1 -19 -1 -37 -5 -40 -4 -2 -3 -19 2 -37 11 -40 11 -40 -3 -31 -7
5 -8 3 -3 -6 5 -8 10 -41 11 -74 2 -33 6 -66 8 -73 3 -7 1 -13 -5 -13 -6 0 -7
-6 -3 -12 11 -17 10 -50 -1 -67 -5 -9 -4 -12 3 -7 7 4 10 -11 9 -49 -2 -30 0
-55 3 -55 3 0 6 -9 6 -20 0 -11 -4 -20 -9 -20 -6 0 -5 -5 0 -13 9 -11 14 -88
17 -244 0 -35 5 -63 11 -63 5 0 4 -5 -3 -12 -6 -6 -8 -18 -4 -27 18 -39 -2
-115 -34 -134 -8 -4 -14 -15 -14 -22 0 -8 -4 -15 -10 -15 -5 0 -10 -7 -10 -15
0 -8 -3 -15 -7 -15 -9 0 -57 -82 -85 -142 -9 -21 -15 -38 -12 -38 3 0 0 -8 -5
-18 -10 -18 -15 -39 -28 -109 l-6 -33 1392 0 1391 0 0 23 c0 73 -97 291 -163
364 -13 15 -19 36 -19 70 -1 80 12 294 17 303 3 5 1 12 -5 15 -8 5 -7 11 1 21
9 11 8 18 -2 31 -8 10 -9 14 -2 10 8 -5 11 2 11 20 -2 110 3 164 15 157 9 -6
9 -5 1 7 -12 14 -11 59 1 78 3 6 1 11 -5 11 -6 0 -9 4 -6 9 7 10 15 132 17
237 1 103 -26 137 -109 136 -25 -1 -49 1 -53 4 -4 2 -1 20 7 39 8 19 11 35 8
35 -4 0 -2 6 4 13 6 7 13 24 16 37 3 14 10 41 16 60 20 63 22 74 27 156 6 97
-7 145 -47 174 -34 24 -58 25 -88 4 -26 -18 -26 -18 -7 36 20 56 24 78 30 175
10 142 14 170 30 208 8 20 13 37 11 37 -3 0 1 15 9 33 27 65 35 203 17 286 -7
32 -4 38 35 78 57 57 72 93 80 201 6 74 -7 81 -35 20 -10 -24 -27 -49 -36 -57
-24 -20 -126 -18 -126 3 0 5 -3 6 -7 3 -3 -4 -65 54 -137 127 -125 128 -214
206 -236 206 -6 0 -10 3 -10 8 0 6 -85 56 -100 58 -3 0 -16 5 -30 11 -21 10
-51 21 -70 28 -3 1 -12 4 -20 8 -31 12 -125 30 -226 43 -89 11 -342 11 -414
-1z"/>
</g>
</svg>
